<svg xmlns="http://www.w3.org/2000/svg" viewBox="0 0 67.54 85.5"><defs><style>.cls-1{isolation:isolate;}.cls-2{opacity:0.25;mix-blend-mode:multiply;}.cls-3{fill:#333;}.cls-4{fill:#ed488c;}.cls-5{fill:#ffb7e3;}.cls-6{fill:#f9d633;}.cls-7{fill:#ffea84;}.cls-8{fill:#ededed;}.cls-9{fill:#fff;}</style></defs><title>Asset 2</title><g class="cls-1"><g id="Layer_2" data-name="Layer 2"><g id="ëÎÓÈ_1" data-name="ëÎÓÈ 1"><g class="cls-2"><path class="cls-3" d="M510.45,246a.27.27,0,0,1-.12,0,2.45,2.45,0,0,1-1.47-2.76,7.32,7.32,0,0,1,.35-1.06,5.41,5.41,0,0,0,.45-1.88.32.32,0,0,1,.19-.27.31.31,0,0,1,.32.06,3.7,3.7,0,0,1,1.25,4c-.34.93-.69,1.72-.69,1.73A.31.31,0,0,1,510.45,246Zm-.26-5a7.22,7.22,0,0,1-.42,1.4,8.21,8.21,0,0,0-.33,1,1.76,1.76,0,0,0,.87,1.92c.13-.31.34-.82.55-1.38A3,3,0,0,0,510.19,241Z" transform="translate(-445.99 -239.42)"/><path class="cls-3" d="M510.45,245.84h0a2.34,2.34,0,0,1-1.37-2.55,9.75,9.75,0,0,1,.34-1,5.47,5.47,0,0,0,.47-1.93.1.1,0,0,1,.07-.1.11.11,0,0,1,.12,0,3.53,3.53,0,0,1,1.2,3.83c-.33.92-.68,1.7-.69,1.71A.1.1,0,0,1,510.45,245.84Zm-.39-5.28a6.25,6.25,0,0,1-.47,1.76,10.15,10.15,0,0,0-.33,1,2,2,0,0,0,1.14,2.23c.1-.24.37-.88.63-1.59A3.3,3.3,0,0,0,510.06,240.56Z" transform="translate(-445.99 -239.42)"/><path class="cls-3" d="M479.51,317.2a.25.25,0,0,1-.25-.25V306.71a.25.25,0,0,1,.25-.25.26.26,0,0,1,.25.25V317A.25.25,0,0,1,479.51,317.2Z" transform="translate(-445.99 -239.42)"/><path class="cls-3" d="M479.51,317a.07.07,0,0,1-.07-.07V306.71a.07.07,0,0,1,.07-.06.06.06,0,0,1,.06.06V317A.07.07,0,0,1,479.51,317Z" transform="translate(-445.99 -239.42)"/><path class="cls-3" d="M489.85,324.91H469.16a.25.25,0,0,1-.25-.25c0-4.76,5.48-8,10.6-8s10.59,3.2,10.59,8A.25.25,0,0,1,489.85,324.91Zm-20.43-.5h20.17c-.18-3.53-4.19-7.21-10.08-7.21S469.6,320.88,469.42,324.41Z" transform="translate(-445.99 -239.42)"/><path class="cls-3" d="M489.85,324.72H469.16a.06.06,0,0,1-.06-.06,6.87,6.87,0,0,1,3.42-5.68,12.72,12.72,0,0,1,14,0,6.87,6.87,0,0,1,3.42,5.68A.05.05,0,0,1,489.85,324.72Zm-20.62-.12h20.56a6.83,6.83,0,0,0-3.37-5.52,12.64,12.64,0,0,0-13.83,0A6.79,6.79,0,0,0,469.23,324.6Z" transform="translate(-445.99 -239.42)"/><path class="cls-3" d="M503.68,246a.27.27,0,0,1-.12,0,2.45,2.45,0,0,1-1.48-2.76c.1-.39.23-.73.35-1.07a5.29,5.29,0,0,0,.46-1.87.32.32,0,0,1,.19-.27.31.31,0,0,1,.32.06,3.72,3.72,0,0,1,1.25,4c-.34.93-.69,1.72-.7,1.73A.3.3,0,0,1,503.68,246Zm-.26-5a8,8,0,0,1-.42,1.4,6.76,6.76,0,0,0-.33,1,1.74,1.74,0,0,0,.86,1.92c.13-.31.34-.82.55-1.38A3,3,0,0,0,503.42,241Z" transform="translate(-445.99 -239.42)"/><path class="cls-3" d="M503.68,245.84h-.05a2.32,2.32,0,0,1-1.36-2.55,9.75,9.75,0,0,1,.34-1,5.94,5.94,0,0,0,.47-1.93.1.1,0,0,1,.07-.1.11.11,0,0,1,.12,0,3.53,3.53,0,0,1,1.2,3.83c-.34.92-.69,1.7-.69,1.71A.12.12,0,0,1,503.68,245.84Zm-.39-5.28a6.34,6.34,0,0,1-.47,1.76,8.13,8.13,0,0,0-.34,1,2,2,0,0,0,1.14,2.23c.11-.24.38-.88.64-1.59A3.32,3.32,0,0,0,503.29,240.56Z" transform="translate(-445.99 -239.42)"/><path class="cls-3" d="M496.91,246a.27.27,0,0,1-.12,0,2.45,2.45,0,0,1-1.47-2.76,7.89,7.89,0,0,1,.35-1.07,5.3,5.3,0,0,0,.45-1.87.32.32,0,0,1,.19-.27.31.31,0,0,1,.32.06,3.7,3.7,0,0,1,1.25,4c-.34.93-.69,1.72-.69,1.73A.31.31,0,0,1,496.91,246Zm-.26-5a7.22,7.22,0,0,1-.42,1.4,8.21,8.21,0,0,0-.33,1,1.75,1.75,0,0,0,.87,1.92c.13-.31.34-.82.55-1.38A3,3,0,0,0,496.65,241Z" transform="translate(-445.99 -239.42)"/><path class="cls-3" d="M496.91,245.84h0a2.34,2.34,0,0,1-1.37-2.55,9.75,9.75,0,0,1,.34-1,5.47,5.47,0,0,0,.47-1.93.1.1,0,0,1,.07-.1.11.11,0,0,1,.12,0,3.53,3.53,0,0,1,1.2,3.83c-.33.92-.68,1.7-.69,1.71A.11.11,0,0,1,496.91,245.84Zm-.39-5.28a6.34,6.34,0,0,1-.47,1.76,10.15,10.15,0,0,0-.33,1,2,2,0,0,0,1.14,2.23c.1-.24.37-.88.63-1.59A3.32,3.32,0,0,0,496.52,240.56Z" transform="translate(-445.99 -239.42)"/><path class="cls-3" d="M479.5,246a.27.27,0,0,1-.12,0,2.45,2.45,0,0,1-1.47-2.76,7.89,7.89,0,0,1,.35-1.07,5.3,5.3,0,0,0,.45-1.87.32.32,0,0,1,.19-.27.31.31,0,0,1,.32.06,3.7,3.7,0,0,1,1.25,4c-.34.93-.69,1.72-.69,1.73A.31.31,0,0,1,479.5,246Zm-.26-5a7.22,7.22,0,0,1-.42,1.4c-.12.33-.24.64-.33,1a1.76,1.76,0,0,0,.87,1.92c.13-.31.34-.82.55-1.38A3,3,0,0,0,479.24,241Z" transform="translate(-445.99 -239.42)"/><path class="cls-3" d="M479.5,245.84h0a2.34,2.34,0,0,1-1.37-2.55,7.93,7.93,0,0,1,.35-1,5.7,5.7,0,0,0,.46-1.93c0-.05,0-.09.07-.1a.11.11,0,0,1,.12,0,3.53,3.53,0,0,1,1.2,3.83c-.33.92-.68,1.7-.69,1.71A.1.1,0,0,1,479.5,245.84Zm-.39-5.28a6,6,0,0,1-.47,1.76,10.15,10.15,0,0,0-.33,1,2,2,0,0,0,1.14,2.23c.1-.24.37-.88.63-1.59A3.3,3.3,0,0,0,479.11,240.56Z" transform="translate(-445.99 -239.42)"/><path class="cls-3" d="M490.05,245.93l-.12,0a2.46,2.46,0,0,1-1.47-2.76,7.46,7.46,0,0,1,.35-1.07,5.64,5.64,0,0,0,.45-1.88.31.31,0,0,1,.19-.26.29.29,0,0,1,.32.06,3.69,3.69,0,0,1,1.25,4c-.34.92-.69,1.71-.69,1.72A.31.31,0,0,1,490.05,245.93Zm-.26-5a7.12,7.12,0,0,1-.42,1.39,6.76,6.76,0,0,0-.33,1,1.77,1.77,0,0,0,.87,1.93c.13-.31.34-.82.54-1.39A2.94,2.94,0,0,0,489.79,240.9Z" transform="translate(-445.99 -239.42)"/><path class="cls-3" d="M490.05,245.74h0a2.32,2.32,0,0,1-1.37-2.54,8.46,8.46,0,0,1,.34-1,5.53,5.53,0,0,0,.47-1.94.12.12,0,0,1,.07-.1.13.13,0,0,1,.12,0,3.53,3.53,0,0,1,1.2,3.83c-.33.92-.68,1.71-.69,1.72A.11.11,0,0,1,490.05,245.74Zm-.39-5.27a6.34,6.34,0,0,1-.47,1.76,8,8,0,0,0-.33,1,2,2,0,0,0,1.14,2.24c.1-.25.37-.88.63-1.59A3.31,3.31,0,0,0,489.66,240.47Z" transform="translate(-445.99 -239.42)"/><path class="cls-3" d="M462.09,246a.27.27,0,0,1-.12,0,2.45,2.45,0,0,1-1.47-2.76,7.32,7.32,0,0,1,.35-1.06,5.64,5.64,0,0,0,.46-1.88.29.29,0,0,1,.18-.27.31.31,0,0,1,.32.06,3.7,3.7,0,0,1,1.25,4c-.34.93-.69,1.72-.69,1.73A.31.31,0,0,1,462.09,246Zm-.26-5a7.22,7.22,0,0,1-.42,1.4c-.12.33-.24.64-.33,1a1.76,1.76,0,0,0,.87,1.92c.13-.31.34-.82.55-1.38A3,3,0,0,0,461.83,241Z" transform="translate(-445.99 -239.42)"/><path class="cls-3" d="M462.09,245.84h0a2.34,2.34,0,0,1-1.37-2.55,7.93,7.93,0,0,1,.35-1,5.7,5.7,0,0,0,.46-1.93c0-.05,0-.09.07-.1a.11.11,0,0,1,.12,0,3.51,3.51,0,0,1,1.2,3.83c-.33.92-.68,1.7-.68,1.71A.12.12,0,0,1,462.09,245.84Zm-.39-5.28a5.93,5.93,0,0,1-.47,1.76,10.15,10.15,0,0,0-.33,1,2,2,0,0,0,1.14,2.23c.1-.24.37-.88.63-1.59A3.3,3.3,0,0,0,461.7,240.56Z" transform="translate(-445.99 -239.42)"/><path class="cls-3" d="M469,246a.27.27,0,0,1-.12,0,2.46,2.46,0,0,1-1.47-2.76,7.32,7.32,0,0,1,.35-1.06,5.64,5.64,0,0,0,.46-1.88.29.29,0,0,1,.18-.27.31.31,0,0,1,.32.06,3.7,3.7,0,0,1,1.25,4c-.34.93-.69,1.72-.69,1.73A.31.31,0,0,1,469,246Zm-.26-5a7.22,7.22,0,0,1-.42,1.4c-.12.33-.24.64-.33,1a1.76,1.76,0,0,0,.87,1.92c.13-.31.34-.82.55-1.38A3,3,0,0,0,468.69,241Z" transform="translate(-445.99 -239.42)"/><path class="cls-3" d="M469,245.84h0a2.34,2.34,0,0,1-1.37-2.55,7.93,7.93,0,0,1,.35-1,5.7,5.7,0,0,0,.46-1.93c0-.05,0-.09.07-.1a.11.11,0,0,1,.12,0,3.51,3.51,0,0,1,1.2,3.83c-.33.92-.68,1.7-.68,1.71A.12.12,0,0,1,469,245.84Zm-.39-5.28a6.26,6.26,0,0,1-.46,1.76,8.13,8.13,0,0,0-.34,1,2,2,0,0,0,1.14,2.23c.1-.24.37-.88.63-1.59A3.3,3.3,0,0,0,468.56,240.56Z" transform="translate(-445.99 -239.42)"/><path class="cls-3" d="M455.33,246a.24.24,0,0,1-.12,0,2.45,2.45,0,0,1-1.48-2.76,9.59,9.59,0,0,1,.35-1.07,5.29,5.29,0,0,0,.46-1.87.3.3,0,0,1,.19-.27.29.29,0,0,1,.31.06,3.71,3.71,0,0,1,1.26,4c-.34.93-.69,1.72-.7,1.73A.3.3,0,0,1,455.33,246Zm-.26-5a8,8,0,0,1-.42,1.4,6.76,6.76,0,0,0-.33,1,1.76,1.76,0,0,0,.86,1.92c.13-.31.34-.82.55-1.38A3,3,0,0,0,455.07,241Z" transform="translate(-445.99 -239.42)"/><path class="cls-3" d="M455.33,245.84h-.05a2.32,2.32,0,0,1-1.36-2.55,9.75,9.75,0,0,1,.34-1,5.94,5.94,0,0,0,.47-1.93.1.1,0,0,1,.07-.1.11.11,0,0,1,.12,0,3.53,3.53,0,0,1,1.2,3.83c-.34.92-.69,1.7-.69,1.71A.12.12,0,0,1,455.33,245.84Zm-.4-5.28a6,6,0,0,1-.46,1.76,8.13,8.13,0,0,0-.34,1,2,2,0,0,0,1.14,2.23c.11-.24.38-.88.64-1.59A3.3,3.3,0,0,0,454.93,240.56Z" transform="translate(-445.99 -239.42)"/><path class="cls-3" d="M448.55,246a.27.27,0,0,1-.12,0,2.45,2.45,0,0,1-1.47-2.76,7.89,7.89,0,0,1,.35-1.07,5.3,5.3,0,0,0,.45-1.87A.32.32,0,0,1,448,240a.31.31,0,0,1,.32.06,3.7,3.7,0,0,1,1.25,4c-.34.93-.69,1.72-.69,1.73A.31.31,0,0,1,448.55,246Zm-.26-5a7.22,7.22,0,0,1-.42,1.4c-.12.33-.24.64-.33,1a1.76,1.76,0,0,0,.87,1.92c.13-.31.34-.82.55-1.38A3,3,0,0,0,448.29,241Z" transform="translate(-445.99 -239.42)"/><path class="cls-3" d="M448.55,245.84h0a2.34,2.34,0,0,1-1.37-2.55,7.93,7.93,0,0,1,.35-1,5.7,5.7,0,0,0,.46-1.93c0-.05,0-.09.07-.1a.11.11,0,0,1,.12,0,3.51,3.51,0,0,1,1.2,3.83c-.33.92-.68,1.7-.69,1.71A.1.1,0,0,1,448.55,245.84Zm-.39-5.28a6.34,6.34,0,0,1-.47,1.76,10.15,10.15,0,0,0-.33,1,2,2,0,0,0,1.14,2.23c.1-.24.37-.88.63-1.59A3.3,3.3,0,0,0,448.16,240.56Z" transform="translate(-445.99 -239.42)"/><path class="cls-3" d="M479.51,291.55a.25.25,0,0,1-.25-.25v-9.61a31.23,31.23,0,0,1-30.95-31.2.25.25,0,0,1,.25-.25.26.26,0,0,1,.25.25,30.73,30.73,0,0,0,30.45,30.7v-6.27c-12.91-.15-24.18-11.5-24.18-24.43a.25.25,0,1,1,.5,0c0,12.67,11,23.78,23.68,23.93v-6.27a17.67,17.67,0,0,1-17.41-17.66.25.25,0,0,1,.5,0,17.18,17.18,0,0,0,16.91,17.16v-6.36a10.81,10.81,0,0,1-10.55-10.8.25.25,0,0,1,.5,0,10.31,10.31,0,0,0,10.05,10.3v-10.3a.25.25,0,0,1,.25-.25.26.26,0,0,1,.25.25v10.3a10.3,10.3,0,0,0,10-10.3.26.26,0,0,1,.51,0,10.81,10.81,0,0,1-10.55,10.8v6.36a17.18,17.18,0,0,0,16.91-17.16.25.25,0,0,1,.25-.25.26.26,0,0,1,.25.25,17.68,17.68,0,0,1-17.41,17.66v6.27c12.64-.15,23.67-11.26,23.67-23.93a.25.25,0,0,1,.5,0c0,12.93-11.27,24.28-24.17,24.43v6.27a30.73,30.73,0,0,0,30.45-30.7.25.25,0,0,1,.25-.25.26.26,0,0,1,.25.25,31.23,31.23,0,0,1-30.95,31.2v9.61A.25.25,0,0,1,479.51,291.55Z" transform="translate(-445.99 -239.42)"/><path class="cls-3" d="M479.51,291.37a.07.07,0,0,1-.07-.07v-9.79a31.06,31.06,0,0,1-30.95-31,.07.07,0,0,1,.07-.06.06.06,0,0,1,.06.06,30.91,30.91,0,0,0,30.82,30.89v-6.65a25,25,0,0,1-24.17-24.24.06.06,0,0,1,.06-.06.06.06,0,0,1,.06.06,24.84,24.84,0,0,0,24.05,24.12V268A17.5,17.5,0,0,1,462,250.49a.07.07,0,0,1,.07-.06.06.06,0,0,1,.06.06,17.36,17.36,0,0,0,17.28,17.35v-6.73a10.62,10.62,0,0,1-10.54-10.62.06.06,0,0,1,.06-.06.06.06,0,0,1,.06.06A10.49,10.49,0,0,0,479.44,261V250.49a.07.07,0,0,1,.07-.06.06.06,0,0,1,.06.06V261A10.49,10.49,0,0,0,490,250.49a.06.06,0,0,1,.06-.06.07.07,0,0,1,.07.06,10.63,10.63,0,0,1-10.55,10.62v6.73a17.36,17.36,0,0,0,17.28-17.35.07.07,0,0,1,.07-.06.06.06,0,0,1,.06.06A17.5,17.5,0,0,1,479.57,268v6.64a24.82,24.82,0,0,0,24.05-24.12.06.06,0,0,1,.06-.06.06.06,0,0,1,.06.06,24.94,24.94,0,0,1-24.17,24.24v6.65a30.91,30.91,0,0,0,30.82-30.89.07.07,0,0,1,.07-.06.06.06,0,0,1,.06.06,31.06,31.06,0,0,1-30.95,31v9.79A.07.07,0,0,1,479.51,291.37Z" transform="translate(-445.99 -239.42)"/><path class="cls-3" d="M510.46,250.75c-1.42,0-2.57-1.62-2.57-3.6a.25.25,0,0,1,.25-.25h4.63a.25.25,0,0,1,.25.25C513,249.13,511.87,250.75,510.46,250.75Zm-2.06-3.35c.08,1.59,1,2.84,2.06,2.84s2-1.25,2.06-2.84Z" transform="translate(-445.99 -239.42)"/><path class="cls-3" d="M510.46,250.56c-1.32,0-2.38-1.53-2.38-3.41a.05.05,0,0,1,.06-.06h4.63s.07,0,.07.06C512.84,249,511.77,250.56,510.46,250.56Zm-2.26-3.35c0,1.78,1,3.22,2.26,3.22s2.23-1.44,2.25-3.22Z" transform="translate(-445.99 -239.42)"/><path class="cls-3" d="M503.68,250.75c-1.41,0-2.57-1.62-2.57-3.6a.25.25,0,0,1,.25-.25H506a.25.25,0,0,1,.25.25C506.25,249.13,505.1,250.75,503.68,250.75Zm-2.06-3.35c.09,1.59,1,2.84,2.06,2.84s2-1.25,2.06-2.84Z" transform="translate(-445.99 -239.42)"/><path class="cls-3" d="M503.68,250.56c-1.31,0-2.38-1.53-2.38-3.41a.06.06,0,0,1,.06-.06H506a.06.06,0,0,1,.06.06C506.06,249,505,250.56,503.68,250.56Zm-2.25-3.35c0,1.78,1,3.22,2.25,3.22s2.23-1.44,2.26-3.22Z" transform="translate(-445.99 -239.42)"/><path class="cls-3" d="M496.92,250.75c-1.42,0-2.57-1.62-2.57-3.6a.25.25,0,0,1,.25-.25h4.63a.25.25,0,0,1,.25.25C499.48,249.13,498.33,250.75,496.92,250.75Zm-2.06-3.35c.08,1.59,1,2.84,2.06,2.84s2-1.25,2.06-2.84Z" transform="translate(-445.99 -239.42)"/><path class="cls-3" d="M496.92,250.56c-1.32,0-2.38-1.53-2.38-3.41a.05.05,0,0,1,.06-.06h4.63s.07,0,.07.06C499.3,249,498.23,250.56,496.92,250.56Zm-2.26-3.35c0,1.78,1,3.22,2.26,3.22s2.23-1.44,2.25-3.22Z" transform="translate(-445.99 -239.42)"/><path class="cls-3" d="M479.51,250.75c-1.42,0-2.57-1.62-2.57-3.6a.25.25,0,0,1,.25-.25h4.63a.25.25,0,0,1,.25.25C482.07,249.13,480.92,250.75,479.51,250.75Zm-2.06-3.35c.08,1.59,1,2.84,2.06,2.84s2-1.25,2.06-2.84Z" transform="translate(-445.99 -239.42)"/><path class="cls-3" d="M479.51,250.56c-1.32,0-2.38-1.53-2.38-3.41a.05.05,0,0,1,.06-.06h4.63s.07,0,.07.06C481.89,249,480.82,250.56,479.51,250.56Zm-2.26-3.35c0,1.78,1,3.22,2.26,3.22s2.23-1.44,2.25-3.22Z" transform="translate(-445.99 -239.42)"/><path class="cls-3" d="M490.05,250.65c-1.41,0-2.56-1.61-2.56-3.6a.25.25,0,0,1,.25-.25h4.63a.25.25,0,0,1,.25.25C492.62,249,491.47,250.65,490.05,250.65ZM488,247.3c.09,1.59,1,2.85,2.06,2.85s2-1.26,2.06-2.85Z" transform="translate(-445.99 -239.42)"/><path class="cls-3" d="M490.05,250.46c-1.31,0-2.38-1.53-2.38-3.41a.07.07,0,0,1,.07-.06h4.63a.06.06,0,0,1,.06.06C492.43,248.93,491.37,250.46,490.05,250.46Zm-2.25-3.34c0,1.78,1,3.22,2.25,3.22s2.24-1.44,2.26-3.22Z" transform="translate(-445.99 -239.42)"/><path class="cls-3" d="M462.1,250.75c-1.42,0-2.57-1.62-2.57-3.6a.25.25,0,0,1,.25-.25h4.63a.25.25,0,0,1,.25.25C464.66,249.13,463.51,250.75,462.1,250.75ZM460,247.4c.08,1.59,1,2.84,2.06,2.84s2-1.25,2.06-2.84Z" transform="translate(-445.99 -239.42)"/><path class="cls-3" d="M462.1,250.56c-1.32,0-2.38-1.53-2.38-3.41a.05.05,0,0,1,.06-.06h4.63s.07,0,.07.06C464.48,249,463.41,250.56,462.1,250.56Zm-2.26-3.35c0,1.78,1,3.22,2.26,3.22s2.23-1.44,2.25-3.22Z" transform="translate(-445.99 -239.42)"/><path class="cls-3" d="M469,250.75c-1.42,0-2.57-1.62-2.57-3.6a.25.25,0,0,1,.25-.25h4.64a.25.25,0,0,1,.25.25C471.53,249.13,470.37,250.75,469,250.75Zm-2.06-3.35c.08,1.59,1,2.84,2.06,2.84s2-1.25,2.06-2.84Z" transform="translate(-445.99 -239.42)"/><path class="cls-3" d="M469,250.56c-1.31,0-2.38-1.53-2.38-3.41a.06.06,0,0,1,.06-.06h4.64a.06.06,0,0,1,.06.06C471.34,249,470.27,250.56,469,250.56Zm-2.26-3.35c0,1.78,1,3.22,2.26,3.22s2.23-1.44,2.25-3.22Z" transform="translate(-445.99 -239.42)"/><path class="cls-3" d="M455.33,250.75c-1.42,0-2.57-1.62-2.57-3.6a.25.25,0,0,1,.25-.25h4.64a.25.25,0,0,1,.25.25C457.9,249.13,456.75,250.75,455.33,250.75Zm-2.06-3.35c.09,1.59,1,2.84,2.06,2.84s2-1.25,2.06-2.84Z" transform="translate(-445.99 -239.42)"/><path class="cls-3" d="M455.33,250.56c-1.31,0-2.38-1.53-2.38-3.41a.06.06,0,0,1,.06-.06h4.64a.06.06,0,0,1,.06.06C457.71,249,456.64,250.56,455.33,250.56Zm-2.25-3.35c0,1.78,1,3.22,2.25,3.22s2.23-1.44,2.26-3.22Z" transform="translate(-445.99 -239.42)"/><path class="cls-3" d="M448.56,250.75c-1.42,0-2.57-1.62-2.57-3.6a.25.25,0,0,1,.25-.25h4.63a.25.25,0,0,1,.25.25C451.12,249.13,450,250.75,448.56,250.75Zm-2.06-3.35c.08,1.59,1,2.84,2.06,2.84s2-1.25,2.06-2.84Z" transform="translate(-445.99 -239.42)"/><path class="cls-3" d="M448.56,250.56c-1.32,0-2.38-1.53-2.38-3.41a.05.05,0,0,1,.06-.06h4.63s.07,0,.07.06C450.94,249,449.87,250.56,448.56,250.56Zm-2.26-3.35c0,1.78,1,3.22,2.26,3.22s2.23-1.44,2.25-3.22Z" transform="translate(-445.99 -239.42)"/><path class="cls-3" d="M486.18,303.16H472.83a.29.29,0,0,1-.25-.15.27.27,0,0,1,0-.3l6.67-11.55a.3.3,0,0,1,.51,0l6.68,11.55a.32.32,0,0,1,0,.3A.31.31,0,0,1,486.18,303.16Zm-12.84-.59h12.33l-6.16-10.68Z" transform="translate(-445.99 -239.42)"/><path class="cls-3" d="M479.51,307a.3.3,0,0,1-.26-.15l-6.67-11.56a.26.26,0,0,1,0-.29.29.29,0,0,1,.25-.15h13.35a.31.31,0,0,1,.26.15.3.3,0,0,1,0,.29l-6.68,11.56A.29.29,0,0,1,479.51,307Zm-6.17-11.56,6.17,10.67,6.16-10.67Z" transform="translate(-445.99 -239.42)"/><path class="cls-3" d="M486.18,303H472.83a.1.1,0,0,1-.08,0,.09.09,0,0,1,0-.1l6.67-11.56a.1.1,0,0,1,.17,0l6.67,11.56a.09.09,0,0,1,0,.1A.08.08,0,0,1,486.18,303Zm-13.18-.2h13l-6.5-11.26Z" transform="translate(-445.99 -239.42)"/><path class="cls-3" d="M479.51,306.81a.11.11,0,0,1-.09-.05l-6.67-11.56a.08.08,0,0,1,0-.09.1.1,0,0,1,.08-.05h13.35a.08.08,0,0,1,.08.05.07.07,0,0,1,0,.09l-6.67,11.56A.1.1,0,0,1,479.51,306.81ZM473,295.25l6.51,11.27,6.5-11.27Z" transform="translate(-445.99 -239.42)"/></g><path class="cls-4" d="M511,245.52a.25.25,0,0,1-.12,0,2.45,2.45,0,0,1-1.47-2.76,7.89,7.89,0,0,1,.35-1.07,5.52,5.52,0,0,0,.46-1.87.29.29,0,0,1,.18-.27.31.31,0,0,1,.32.06,3.7,3.7,0,0,1,1.25,4c-.34.93-.69,1.72-.69,1.73A.3.3,0,0,1,511,245.52Zm-.26-5a7.22,7.22,0,0,1-.42,1.4c-.12.33-.24.64-.33,1a1.76,1.76,0,0,0,.87,1.92c.13-.31.34-.82.55-1.38A3,3,0,0,0,510.69,240.49Z" transform="translate(-445.99 -239.42)"/><path class="cls-5" d="M511,245.34h0a2.35,2.35,0,0,1-1.37-2.55,7.93,7.93,0,0,1,.35-1,5.7,5.7,0,0,0,.46-1.94.11.11,0,0,1,.07-.09.11.11,0,0,1,.12,0,3.51,3.51,0,0,1,1.2,3.83c-.33.92-.68,1.7-.68,1.71A.12.12,0,0,1,511,245.34Zm-.39-5.28a6,6,0,0,1-.47,1.76,10.15,10.15,0,0,0-.33,1,2,2,0,0,0,1.14,2.23c.1-.24.37-.88.63-1.59A3.3,3.3,0,0,0,510.56,240.06Z" transform="translate(-445.99 -239.42)"/><path class="cls-6" d="M480,316.7a.25.25,0,0,1-.25-.25V306.21a.25.25,0,0,1,.5,0v10.24A.25.25,0,0,1,480,316.7Z" transform="translate(-445.99 -239.42)"/><path class="cls-7" d="M480,316.52a.07.07,0,0,1-.07-.07V306.21a.07.07,0,0,1,.07-.06.06.06,0,0,1,.06.06v10.24A.07.07,0,0,1,480,316.52Z" transform="translate(-445.99 -239.42)"/><path class="cls-6" d="M490.35,324.41H469.66a.25.25,0,0,1-.25-.25c0-4.76,5.48-8,10.6-8s10.59,3.2,10.59,8A.25.25,0,0,1,490.35,324.41Zm-20.43-.5h20.17c-.18-3.53-4.18-7.21-10.08-7.21S470.1,320.38,469.92,323.91Z" transform="translate(-445.99 -239.42)"/><path class="cls-7" d="M490.35,324.22H469.66a.06.06,0,0,1-.06-.06,6.9,6.9,0,0,1,3.42-5.68,12.72,12.72,0,0,1,14,0,6.87,6.87,0,0,1,3.42,5.68A.05.05,0,0,1,490.35,324.22Zm-20.62-.12h20.56a6.8,6.8,0,0,0-3.37-5.52,12.64,12.64,0,0,0-13.83,0A6.79,6.79,0,0,0,469.73,324.1Z" transform="translate(-445.99 -239.42)"/><path class="cls-4" d="M504.18,245.52a.25.25,0,0,1-.12,0,2.45,2.45,0,0,1-1.48-2.76,9.58,9.58,0,0,1,.36-1.07,5.58,5.58,0,0,0,.45-1.87.32.32,0,0,1,.19-.27.31.31,0,0,1,.32.06,3.72,3.72,0,0,1,1.25,4c-.34.93-.69,1.72-.7,1.73A.29.29,0,0,1,504.18,245.52Zm-.26-5a7.22,7.22,0,0,1-.42,1.4,6.76,6.76,0,0,0-.33,1,1.76,1.76,0,0,0,.86,1.92c.13-.31.35-.82.55-1.38A3,3,0,0,0,503.92,240.49Z" transform="translate(-445.99 -239.42)"/><path class="cls-5" d="M504.18,245.34h-.05a2.34,2.34,0,0,1-1.36-2.55,9.75,9.75,0,0,1,.34-1,5.94,5.94,0,0,0,.47-1.94.1.1,0,0,1,.07-.09.11.11,0,0,1,.12,0,3.53,3.53,0,0,1,1.2,3.83c-.34.92-.69,1.7-.69,1.71A.12.12,0,0,1,504.18,245.34Zm-.39-5.28a6.34,6.34,0,0,1-.47,1.76,6.41,6.41,0,0,0-.33,1,2,2,0,0,0,1.13,2.23c.11-.24.38-.88.64-1.59A3.32,3.32,0,0,0,503.79,240.06Z" transform="translate(-445.99 -239.42)"/><path class="cls-4" d="M497.41,245.52a.25.25,0,0,1-.12,0,2.45,2.45,0,0,1-1.47-2.76,7.89,7.89,0,0,1,.35-1.07,5.35,5.35,0,0,0,.45-1.87.32.32,0,0,1,.19-.27.31.31,0,0,1,.32.06,3.7,3.7,0,0,1,1.25,4c-.34.93-.69,1.72-.69,1.73A.3.3,0,0,1,497.41,245.52Zm-.26-5a7.22,7.22,0,0,1-.42,1.4c-.12.33-.24.64-.33,1a1.76,1.76,0,0,0,.87,1.92c.13-.31.34-.82.55-1.38A3,3,0,0,0,497.15,240.49Z" transform="translate(-445.99 -239.42)"/><path class="cls-5" d="M497.41,245.34h0a2.35,2.35,0,0,1-1.37-2.55,7.93,7.93,0,0,1,.35-1,5.7,5.7,0,0,0,.46-1.94.11.11,0,0,1,.07-.09.11.11,0,0,1,.12,0,3.51,3.51,0,0,1,1.2,3.83c-.33.92-.68,1.7-.69,1.71A.1.1,0,0,1,497.41,245.34Zm-.39-5.28a6,6,0,0,1-.47,1.76,9.38,9.38,0,0,0-.33,1,2,2,0,0,0,1.14,2.23c.1-.24.37-.88.63-1.59A3.3,3.3,0,0,0,497,240.06Z" transform="translate(-445.99 -239.42)"/><path class="cls-4" d="M480,245.52a.25.25,0,0,1-.12,0,2.45,2.45,0,0,1-1.47-2.76,7.89,7.89,0,0,1,.35-1.07,5.58,5.58,0,0,0,.46-1.87.29.29,0,0,1,.18-.27.31.31,0,0,1,.32.06,3.7,3.7,0,0,1,1.25,4c-.34.93-.69,1.72-.69,1.73A.3.3,0,0,1,480,245.52Zm-.26-5a7.22,7.22,0,0,1-.42,1.4c-.12.33-.24.64-.33,1a1.76,1.76,0,0,0,.87,1.92c.13-.31.34-.82.55-1.38A3,3,0,0,0,479.74,240.49Z" transform="translate(-445.99 -239.42)"/><path class="cls-5" d="M480,245.34h0a2.35,2.35,0,0,1-1.37-2.55,7.93,7.93,0,0,1,.35-1,5.7,5.7,0,0,0,.46-1.94.11.11,0,0,1,.07-.09.11.11,0,0,1,.12,0,3.51,3.51,0,0,1,1.2,3.83c-.33.92-.68,1.7-.68,1.71A.12.12,0,0,1,480,245.34Zm-.39-5.28a6.35,6.35,0,0,1-.46,1.76,7.62,7.62,0,0,0-.34,1,2,2,0,0,0,1.14,2.23c.1-.24.37-.88.63-1.59A3.3,3.3,0,0,0,479.61,240.06Z" transform="translate(-445.99 -239.42)"/><path class="cls-4" d="M490.55,245.43l-.12,0a2.44,2.44,0,0,1-1.47-2.76,7.75,7.75,0,0,1,.35-1.06,5.41,5.41,0,0,0,.45-1.88.31.31,0,0,1,.19-.26.29.29,0,0,1,.32.06,3.69,3.69,0,0,1,1.25,4c-.34.92-.69,1.71-.69,1.72A.31.31,0,0,1,490.55,245.43Zm-.26-5a7.12,7.12,0,0,1-.42,1.39,8.21,8.21,0,0,0-.33,1,1.77,1.77,0,0,0,.87,1.93c.13-.31.34-.83.55-1.39A3,3,0,0,0,490.29,240.4Z" transform="translate(-445.99 -239.42)"/><path class="cls-5" d="M490.55,245.24h0a2.33,2.33,0,0,1-1.37-2.54,8.46,8.46,0,0,1,.34-1,5.53,5.53,0,0,0,.47-1.94.12.12,0,0,1,.07-.1.13.13,0,0,1,.12,0,3.53,3.53,0,0,1,1.2,3.83c-.33.92-.68,1.71-.69,1.72A.1.1,0,0,1,490.55,245.24Zm-.39-5.27a6.34,6.34,0,0,1-.47,1.76,10,10,0,0,0-.33,1A2,2,0,0,0,490.5,245c.1-.25.37-.88.63-1.59A3.31,3.31,0,0,0,490.16,240Z" transform="translate(-445.99 -239.42)"/><path class="cls-4" d="M462.59,245.52a.25.25,0,0,1-.12,0,2.46,2.46,0,0,1-1.47-2.76,7.89,7.89,0,0,1,.35-1.07,5.52,5.52,0,0,0,.46-1.87.29.29,0,0,1,.18-.27.31.31,0,0,1,.32.06,3.7,3.7,0,0,1,1.25,4c-.34.93-.69,1.72-.69,1.73A.3.3,0,0,1,462.59,245.52Zm-.26-5a7.22,7.22,0,0,1-.42,1.4c-.12.33-.24.64-.33,1a1.76,1.76,0,0,0,.87,1.92c.13-.31.34-.82.55-1.38A3,3,0,0,0,462.33,240.49Z" transform="translate(-445.99 -239.42)"/><path class="cls-5" d="M462.59,245.34h0a2.35,2.35,0,0,1-1.37-2.55,7.93,7.93,0,0,1,.35-1,5.7,5.7,0,0,0,.46-1.94.11.11,0,0,1,.07-.09.11.11,0,0,1,.12,0,3.51,3.51,0,0,1,1.2,3.83c-.33.92-.68,1.7-.68,1.71A.12.12,0,0,1,462.59,245.34Zm-.39-5.28a6.35,6.35,0,0,1-.46,1.76,8.13,8.13,0,0,0-.34,1,2,2,0,0,0,1.14,2.23c.1-.24.37-.88.63-1.59A3.3,3.3,0,0,0,462.2,240.06Z" transform="translate(-445.99 -239.42)"/><path class="cls-4" d="M469.45,245.52a.25.25,0,0,1-.12,0,2.46,2.46,0,0,1-1.47-2.76,7.89,7.89,0,0,1,.35-1.07,5.52,5.52,0,0,0,.46-1.87.29.29,0,0,1,.18-.27.31.31,0,0,1,.32.06,3.7,3.7,0,0,1,1.25,4c-.34.93-.69,1.72-.69,1.73A.3.3,0,0,1,469.45,245.52Zm-.25-5a8,8,0,0,1-.43,1.4c-.12.33-.24.64-.33,1a1.76,1.76,0,0,0,.87,1.92c.13-.31.34-.82.55-1.38A3,3,0,0,0,469.2,240.49Z" transform="translate(-445.99 -239.42)"/><path class="cls-5" d="M469.45,245.34h0a2.35,2.35,0,0,1-1.37-2.55,7.93,7.93,0,0,1,.35-1,5.94,5.94,0,0,0,.47-1.94.09.09,0,0,1,.06-.09.11.11,0,0,1,.12,0,3.52,3.52,0,0,1,1.21,3.83c-.34.92-.69,1.7-.69,1.71A.12.12,0,0,1,469.45,245.34Zm-.39-5.28a6.35,6.35,0,0,1-.46,1.76,8.13,8.13,0,0,0-.34,1,2,2,0,0,0,1.14,2.23c.11-.24.37-.88.64-1.59A3.32,3.32,0,0,0,469.06,240.06Z" transform="translate(-445.99 -239.42)"/><path class="cls-4" d="M455.83,245.52a.25.25,0,0,1-.12,0,2.45,2.45,0,0,1-1.48-2.76c.1-.39.23-.73.35-1.07a5.35,5.35,0,0,0,.46-1.87.32.32,0,0,1,.19-.27.31.31,0,0,1,.32.06,3.72,3.72,0,0,1,1.25,4c-.34.93-.69,1.72-.7,1.73A.29.29,0,0,1,455.83,245.52Zm-.26-5a8,8,0,0,1-.42,1.4,6.76,6.76,0,0,0-.33,1,1.77,1.77,0,0,0,.86,1.92c.13-.31.34-.82.55-1.38A3,3,0,0,0,455.57,240.49Z" transform="translate(-445.99 -239.42)"/><path class="cls-5" d="M455.83,245.34h-.05a2.33,2.33,0,0,1-1.36-2.55,9.75,9.75,0,0,1,.34-1,5.94,5.94,0,0,0,.47-1.94.1.1,0,0,1,.07-.09.11.11,0,0,1,.12,0,3.53,3.53,0,0,1,1.2,3.83c-.34.92-.69,1.7-.69,1.71A.12.12,0,0,1,455.83,245.34Zm-.39-5.28a6.34,6.34,0,0,1-.47,1.76,7.62,7.62,0,0,0-.34,1,2,2,0,0,0,1.14,2.23c.11-.24.38-.88.64-1.59A3.32,3.32,0,0,0,455.44,240.06Z" transform="translate(-445.99 -239.42)"/><path class="cls-4" d="M449.05,245.52a.25.25,0,0,1-.12,0,2.45,2.45,0,0,1-1.47-2.76,7.89,7.89,0,0,1,.35-1.07,5.58,5.58,0,0,0,.46-1.87.29.29,0,0,1,.18-.27.31.31,0,0,1,.32.06,3.7,3.7,0,0,1,1.25,4c-.34.93-.69,1.72-.69,1.73A.3.3,0,0,1,449.05,245.52Zm-.26-5a7.22,7.22,0,0,1-.42,1.4c-.12.33-.24.64-.33,1a1.76,1.76,0,0,0,.87,1.92c.13-.31.34-.82.55-1.38A3,3,0,0,0,448.79,240.49Z" transform="translate(-445.99 -239.42)"/><path class="cls-5" d="M449.05,245.34h0a2.35,2.35,0,0,1-1.37-2.55,7.93,7.93,0,0,1,.35-1,5.7,5.7,0,0,0,.46-1.94.11.11,0,0,1,.07-.09.11.11,0,0,1,.12,0,3.51,3.51,0,0,1,1.2,3.83c-.33.92-.68,1.7-.68,1.71A.12.12,0,0,1,449.05,245.34Zm-.39-5.28a6.35,6.35,0,0,1-.46,1.76,7.62,7.62,0,0,0-.34,1,2,2,0,0,0,1.14,2.23c.1-.24.37-.88.63-1.59A3.3,3.3,0,0,0,448.66,240.06Z" transform="translate(-445.99 -239.42)"/><path class="cls-6" d="M480,291.05a.25.25,0,0,1-.25-.25v-9.61A31.23,31.23,0,0,1,448.81,250a.25.25,0,1,1,.5,0,30.73,30.73,0,0,0,30.45,30.7v-6.27c-12.91-.15-24.18-11.5-24.18-24.43a.25.25,0,1,1,.5,0c0,12.67,11,23.78,23.68,23.93v-6.27A17.67,17.67,0,0,1,462.35,250a.25.25,0,0,1,.5,0,17.18,17.18,0,0,0,16.91,17.16v-6.36A10.81,10.81,0,0,1,469.21,250a.25.25,0,0,1,.5,0,10.31,10.31,0,0,0,10.05,10.3V250a.25.25,0,0,1,.5,0v10.3A10.31,10.31,0,0,0,490.31,250a.25.25,0,0,1,.25-.25.26.26,0,0,1,.25.25,10.81,10.81,0,0,1-10.55,10.8v6.36A17.18,17.18,0,0,0,497.17,250a.25.25,0,0,1,.25-.25.26.26,0,0,1,.25.25,17.68,17.68,0,0,1-17.41,17.66v6.27c12.64-.15,23.67-11.26,23.67-23.93a.25.25,0,0,1,.5,0c0,12.93-11.26,24.28-24.17,24.43v6.27A30.73,30.73,0,0,0,510.71,250a.25.25,0,0,1,.5,0,31.23,31.23,0,0,1-30.95,31.2v9.61A.25.25,0,0,1,480,291.05Z" transform="translate(-445.99 -239.42)"/><path class="cls-7" d="M480,290.86s-.07,0-.07-.06V281A31.06,31.06,0,0,1,449,250a.07.07,0,0,1,.07-.06.06.06,0,0,1,.06.06,30.92,30.92,0,0,0,30.82,30.89v-6.65A25,25,0,0,1,455.77,250a.06.06,0,0,1,.06-.06.06.06,0,0,1,.06.06,24.84,24.84,0,0,0,24.05,24.12v-6.64A17.49,17.49,0,0,1,462.54,250a.06.06,0,0,1,.06-.06.06.06,0,0,1,.06.06,17.36,17.36,0,0,0,17.28,17.35v-6.73A10.63,10.63,0,0,1,469.4,250a.06.06,0,0,1,.06-.06.06.06,0,0,1,.06.06,10.49,10.49,0,0,0,10.42,10.49V250a.07.07,0,0,1,.07-.06.06.06,0,0,1,.06.06v10.49A10.49,10.49,0,0,0,490.49,250a.07.07,0,0,1,.07-.06.06.06,0,0,1,.06.06,10.64,10.64,0,0,1-10.55,10.62v6.73A17.36,17.36,0,0,0,497.35,250a.07.07,0,0,1,.07-.06.06.06,0,0,1,.06.06,17.5,17.5,0,0,1-17.41,17.48v6.64A24.82,24.82,0,0,0,504.12,250a.06.06,0,0,1,.06-.06.07.07,0,0,1,.07.06,25,25,0,0,1-24.18,24.24v6.65A30.92,30.92,0,0,0,510.89,250a.07.07,0,0,1,.07-.06.06.06,0,0,1,.06.06,31.06,31.06,0,0,1-30.95,31v9.79A.06.06,0,0,1,480,290.86Z" transform="translate(-445.99 -239.42)"/><path class="cls-6" d="M511,250.24c-1.42,0-2.57-1.61-2.57-3.59a.25.25,0,0,1,.25-.25h4.63a.26.26,0,0,1,.26.25C513.53,248.63,512.37,250.24,511,250.24Zm-2.06-3.34c.08,1.59,1,2.84,2.06,2.84s2-1.25,2.06-2.84Z" transform="translate(-445.99 -239.42)"/><path class="cls-7" d="M511,250.06c-1.32,0-2.38-1.53-2.38-3.41a.05.05,0,0,1,.06-.06h4.63s.07,0,.07.06C513.34,248.53,512.27,250.06,511,250.06Zm-2.26-3.35c0,1.78,1,3.22,2.26,3.22s2.23-1.44,2.25-3.22Z" transform="translate(-445.99 -239.42)"/><path class="cls-6" d="M504.18,250.24c-1.41,0-2.57-1.61-2.57-3.59a.26.26,0,0,1,.26-.25h4.63a.25.25,0,0,1,.25.25C506.75,248.63,505.6,250.24,504.18,250.24Zm-2.06-3.34c.09,1.59,1,2.84,2.06,2.84s2-1.25,2.06-2.84Z" transform="translate(-445.99 -239.42)"/><path class="cls-7" d="M504.18,250.06c-1.31,0-2.38-1.53-2.38-3.41,0,0,0-.06.07-.06h4.63a.06.06,0,0,1,.06.06C506.56,248.53,505.5,250.06,504.18,250.06Zm-2.25-3.35c0,1.78,1,3.22,2.25,3.22s2.23-1.44,2.26-3.22Z" transform="translate(-445.99 -239.42)"/><path class="cls-6" d="M497.42,250.24c-1.42,0-2.57-1.61-2.57-3.59a.25.25,0,0,1,.25-.25h4.63a.25.25,0,0,1,.25.25C500,248.63,498.83,250.24,497.42,250.24Zm-2.06-3.34c.08,1.59,1,2.84,2.06,2.84s2-1.25,2.06-2.84Z" transform="translate(-445.99 -239.42)"/><path class="cls-7" d="M497.42,250.06c-1.32,0-2.38-1.53-2.38-3.41a.05.05,0,0,1,.06-.06h4.63s.07,0,.07.06C499.8,248.53,498.73,250.06,497.42,250.06Zm-2.26-3.35c0,1.78,1,3.22,2.26,3.22s2.23-1.44,2.25-3.22Z" transform="translate(-445.99 -239.42)"/><path class="cls-6" d="M480,250.24c-1.42,0-2.57-1.61-2.57-3.59a.25.25,0,0,1,.25-.25h4.63a.26.26,0,0,1,.26.25C482.58,248.63,481.42,250.24,480,250.24ZM478,246.9c.08,1.59,1,2.84,2.06,2.84s2-1.25,2.06-2.84Z" transform="translate(-445.99 -239.42)"/><path class="cls-7" d="M480,250.06c-1.32,0-2.38-1.53-2.38-3.41a.05.05,0,0,1,.06-.06h4.63s.07,0,.07.06C482.39,248.53,481.32,250.06,480,250.06Zm-2.26-3.35c0,1.78,1,3.22,2.26,3.22s2.23-1.44,2.25-3.22Z" transform="translate(-445.99 -239.42)"/><path class="cls-6" d="M490.56,250.15c-1.42,0-2.57-1.61-2.57-3.6a.25.25,0,0,1,.25-.25h4.63a.25.25,0,0,1,.25.25C493.12,248.54,492,250.15,490.56,250.15Zm-2.06-3.35c.08,1.59,1,2.85,2.06,2.85s2-1.26,2.06-2.85Z" transform="translate(-445.99 -239.42)"/><path class="cls-7" d="M490.56,250c-1.32,0-2.38-1.53-2.38-3.41a.06.06,0,0,1,.06-.06h4.63a.07.07,0,0,1,.07.06C492.94,248.43,491.87,250,490.56,250Zm-2.26-3.34c0,1.78,1,3.22,2.26,3.22s2.23-1.44,2.25-3.22Z" transform="translate(-445.99 -239.42)"/><path class="cls-6" d="M462.6,250.24c-1.42,0-2.57-1.61-2.57-3.59a.25.25,0,0,1,.25-.25h4.64a.25.25,0,0,1,.25.25C465.17,248.63,464,250.24,462.6,250.24Zm-2.06-3.34c.08,1.59,1,2.84,2.06,2.84s2-1.25,2.06-2.84Z" transform="translate(-445.99 -239.42)"/><path class="cls-7" d="M462.6,250.06c-1.31,0-2.38-1.53-2.38-3.41a.06.06,0,0,1,.06-.06h4.64a.06.06,0,0,1,.06.06C465,248.53,463.91,250.06,462.6,250.06Zm-2.26-3.35c0,1.78,1,3.22,2.26,3.22s2.23-1.44,2.25-3.22Z" transform="translate(-445.99 -239.42)"/><path class="cls-6" d="M469.46,250.24c-1.42,0-2.57-1.61-2.57-3.59a.25.25,0,0,1,.25-.25h4.64a.25.25,0,0,1,.25.25C472,248.63,470.87,250.24,469.46,250.24Zm-2.06-3.34c.08,1.59,1,2.84,2.06,2.84s2-1.25,2.06-2.84Z" transform="translate(-445.99 -239.42)"/><path class="cls-7" d="M469.46,250.06c-1.31,0-2.38-1.53-2.38-3.41a.06.06,0,0,1,.06-.06h4.64a.06.06,0,0,1,.06.06C471.84,248.53,470.77,250.06,469.46,250.06Zm-2.26-3.35c0,1.78,1,3.22,2.26,3.22s2.23-1.44,2.25-3.22Z" transform="translate(-445.99 -239.42)"/><path class="cls-6" d="M455.83,250.24c-1.41,0-2.57-1.61-2.57-3.59a.25.25,0,0,1,.25-.25h4.64a.25.25,0,0,1,.25.25C458.4,248.63,457.25,250.24,455.83,250.24Zm-2.06-3.34c.09,1.59,1,2.84,2.06,2.84s2-1.25,2.06-2.84Z" transform="translate(-445.99 -239.42)"/><path class="cls-7" d="M455.83,250.06c-1.31,0-2.38-1.53-2.38-3.41a.06.06,0,0,1,.06-.06h4.64a.06.06,0,0,1,.06.06C458.21,248.53,457.14,250.06,455.83,250.06Zm-2.25-3.35c0,1.78,1,3.22,2.25,3.22s2.23-1.44,2.26-3.22Z" transform="translate(-445.99 -239.42)"/><path class="cls-6" d="M449.06,250.24c-1.42,0-2.57-1.61-2.57-3.59a.25.25,0,0,1,.25-.25h4.63a.25.25,0,0,1,.25.25C451.62,248.63,450.47,250.24,449.06,250.24ZM447,246.9c.08,1.59,1,2.84,2.06,2.84s2-1.25,2.06-2.84Z" transform="translate(-445.99 -239.42)"/><path class="cls-7" d="M449.06,250.06c-1.32,0-2.38-1.53-2.38-3.41a.06.06,0,0,1,.06-.06h4.63s.07,0,.07.06C451.44,248.53,450.37,250.06,449.06,250.06Zm-2.26-3.35c0,1.78,1,3.22,2.26,3.22s2.23-1.44,2.25-3.22Z" transform="translate(-445.99 -239.42)"/><path class="cls-8" d="M486.68,302.66H473.33a.29.29,0,0,1-.25-.15.32.32,0,0,1,0-.3l6.67-11.56a.31.31,0,0,1,.51,0l6.68,11.56a.32.32,0,0,1,0,.3A.31.31,0,0,1,486.68,302.66Zm-12.83-.6h12.32L480,291.39Z" transform="translate(-445.99 -239.42)"/><path class="cls-8" d="M480,306.51a.3.3,0,0,1-.26-.15l-6.67-11.56a.3.3,0,0,1,0-.29.29.29,0,0,1,.25-.15h13.35a.31.31,0,0,1,.26.15.3.3,0,0,1,0,.29l-6.68,11.56A.29.29,0,0,1,480,306.51ZM473.85,295,480,305.62,486.17,295Z" transform="translate(-445.99 -239.42)"/><path class="cls-9" d="M486.68,302.46H473.33a.1.1,0,0,1-.08,0,.09.09,0,0,1,0-.1l6.67-11.56a.1.1,0,0,1,.17,0l6.68,11.56a.17.17,0,0,1,0,.1A.11.11,0,0,1,486.68,302.46Zm-13.18-.2h13L480,291Z" transform="translate(-445.99 -239.42)"/><path class="cls-9" d="M480,306.31a.11.11,0,0,1-.09-.05l-6.67-11.56a.08.08,0,0,1,0-.09.1.1,0,0,1,.08-.05h13.35a.11.11,0,0,1,.09.05.14.14,0,0,1,0,.09l-6.68,11.56A.1.1,0,0,1,480,306.31Zm-6.51-11.56L480,306l6.5-11.27Z" transform="translate(-445.99 -239.42)"/></g></g></g></svg>